<svg xmlns="http://www.w3.org/2000/svg" xmlns:xlink="http://www.w3.org/1999/xlink" width="40" height="40"><defs><circle id="a" cx="20" cy="20" r="20"/><path id="c" d="M0 0h31.667v23.333H0z"/></defs><g fill="none" fill-rule="evenodd"><mask id="b" fill="#fff"><use xlink:href="#a"/></mask><use fill="#FFE11B" fill-rule="nonzero" xlink:href="#a"/><g mask="url(#b)"><g transform="translate(5 16.667)"><mask id="d" fill="#fff"><use xlink:href="#c"/></mask><path fill="#027CD5" d="M21.393 17.135h2.878c1.07 0 1.76-.796 2.078-2.584.299-1.715-.09-2.48-1.163-2.48h-2.882l.455-2.573c.508-2.938 2.018-4.388 4.5-4.388h.473c1.38 0 2.134-.228 2.24-.884.085-.44-.039-1.047-.177-1.715-.146-.65-.301-1.278-.522-1.63C28.939.286 28.173 0 26.97 0c-2.98 0-5.434.837-7.367 2.53-1.924 1.682-3.151 3.944-3.692 7.013l-.462 2.529H9.402c-.097 0-6.347.708-6.347.708l5.753.886.232.854-3.521.3 3.701.542.146.695-11.033.62s11.91.458 12.005.458h4.192l-1.083 6.198h6.87l1.076-6.198z" mask="url(#d)"/></g></g></g></svg>